<svg width="20" height="20" viewBox="0 0 20 20" fill="none" xmlns="http://www.w3.org/2000/svg">
    <path fill-rule="evenodd" clip-rule="evenodd"
        d="M12.1854 3.88452C11.2329 2.17 8.76713 2.17 7.81462 3.88453L2.31381 13.786C1.38807 15.4523 2.59299 17.5001 4.4992 17.5001H15.5008C17.407 17.5001 18.6119 15.4523 17.6862 13.786L12.1854 3.88452ZM9.99996 7.50016C10.4602 7.50016 10.8333 7.87326 10.8333 8.3335V11.6668C10.8333 12.1271 10.4602 12.5002 9.99996 12.5002C9.53972 12.5002 9.16663 12.1271 9.16663 11.6668V8.3335C9.16663 7.87326 9.53972 7.50016 9.99996 7.50016ZM9.99996 15.0002C10.4602 15.0002 10.8333 14.6271 10.8333 14.1668C10.8333 13.7066 10.4602 13.3335 9.99996 13.3335C9.53972 13.3335 9.16663 13.7066 9.16663 14.1668C9.16663 14.6271 9.53972 15.0002 9.99996 15.0002Z"
        fill="#F43F5E"
        style="fill:#F43F5E;fill:color(display-p3 0.9569 0.2471 0.3686);fill-opacity:1;" />
</svg>
